<svg height="512" viewBox="0 0 128 128" width="512" xmlns="http://www.w3.org/2000/svg"><g><path d="m108.256 82.328 10.167-49.836a5.474 5.474 0 0 0 -.456-10.93h-20.645a22.481 22.481 0 0 0 -43.608 0h-13.889l-1.62-7.94a4.558 4.558 0 0 0 -.691-9.065h-28.389a4.568 4.568 0 1 0 0 9.135h19.651l1.736 8.508a5.471 5.471 0 0 0 2.1 10.293l10.168 49.835 2.684 13.157a1.75 1.75 0 0 0 1.715 1.4h56.544a4.568 4.568 0 1 0 0-9.136h-50.4l-.82-4.021h54.037a1.751 1.751 0 0 0 1.716-1.4zm9.711-57.266a1.977 1.977 0 0 1 0 3.954h-20.059c.057-.652.092-1.311.092-1.977s-.035-1.325-.092-1.977zm-42.449-17.005a18.982 18.982 0 1 1 -18.982 18.982 19 19 0 0 1 18.982-18.982zm-67.461 1.068a1.069 1.069 0 0 1 1.068-1.068h28.389a1.068 1.068 0 1 1 0 2.135h-28.389a1.069 1.069 0 0 1 -1.068-1.067zm26.589 4.567 1.606 7.87h-2.3l-1.605-7.87zm-3.554 13.347a1.979 1.979 0 0 1 1.976-1.977h20.06c-.058.652-.092 1.31-.092 1.977s.034 1.325.092 1.977h-20.06a1.979 1.979 0 0 1 -1.976-1.977zm19.088 62.811a1.751 1.751 0 0 0 1.715 1.4h51.828a1.068 1.068 0 1 1 0 2.136h-55.115l-1.97-9.657h2.293zm.191-9.621a.1.1 0 0 0 -.017 0h-4.43l-9.735-47.713h17.524a22.487 22.487 0 0 0 5.878 10.374h-9.85a1.75 1.75 0 0 0 0 3.5h14.351a22.412 22.412 0 0 0 22.851 0h14.351a1.75 1.75 0 0 0 0-3.5h-9.85a22.469 22.469 0 0 0 5.878-10.374h17.524l-9.734 47.713z"/><path d="m54.013 100.907a11.268 11.268 0 1 0 11.268 11.268 11.281 11.281 0 0 0 -11.268-11.268zm0 19.036a7.768 7.768 0 1 1 7.768-7.768 7.777 7.777 0 0 1 -7.768 7.768z"/><path d="m97.022 100.907a11.268 11.268 0 1 0 11.269 11.268 11.281 11.281 0 0 0 -11.269-11.268zm0 19.036a7.768 7.768 0 1 1 7.769-7.768 7.777 7.777 0 0 1 -7.769 7.768z"/><path d="m97.022 106.749a5.426 5.426 0 1 0 5.426 5.426 5.432 5.432 0 0 0 -5.426-5.426zm0 7.352a1.926 1.926 0 1 1 1.926-1.926 1.928 1.928 0 0 1 -1.926 1.925z"/><path d="m54.013 106.749a5.426 5.426 0 1 0 5.426 5.426 5.432 5.432 0 0 0 -5.426-5.426zm0 7.352a1.926 1.926 0 1 1 1.926-1.926 1.928 1.928 0 0 1 -1.926 1.925z"/><path d="m99.452 54.622h-47.869a1.75 1.75 0 0 0 0 3.5h47.869a1.75 1.75 0 0 0 0-3.5z"/><path d="m97.464 66.354h-43.893a1.75 1.75 0 0 0 0 3.5h43.893a1.75 1.75 0 0 0 0-3.5z"/><path d="m74.28 41.827a1.752 1.752 0 0 0 2.475 0l10.5-10.5a1.75 1.75 0 0 0 -1.237-2.987h-5.034v-14.852a1.751 1.751 0 0 0 -1.75-1.75h-7.434a1.751 1.751 0 0 0 -1.75 1.75v14.854h-5.03a1.749 1.749 0 0 0 -1.237 2.987zm-2.48-9.985a1.75 1.75 0 0 0 1.75-1.75v-14.854h3.933v14.854a1.751 1.751 0 0 0 1.75 1.75h2.557l-6.273 6.273-6.273-6.273z"/></g></svg>